<svg xmlns="http://www.w3.org/2000/svg" viewBox="0 0 100 120" fill="none">
  <!-- Stem -->
  <path d="M50 70 C 49 84, 47 96, 44 114" stroke="#c9a227" stroke-width="2.6" stroke-linecap="round"/>

  <!-- Leaves -->
  <path d="M47 90 C 36 88, 28 94, 25 104 C 36 104, 44 99, 47 90 Z" fill="#e8c84a" stroke="#c9a227" stroke-width="1.6" stroke-linejoin="round"/>
  <path d="M46 98 C 56 98, 63 105, 65 114 C 54 114, 47 108, 46 98 Z" fill="#e8c84a" stroke="#c9a227" stroke-width="1.6" stroke-linejoin="round"/>

  <!-- Outer petal ring -->
  <path d="M50,53 C 33.879999999999995,44.9 37.0,31.939999999999998 46.88,28 C 48.7,26 51.3,26 53.12,28 C 63.0,31.939999999999998 66.12,44.9 50,53 Z" transform="rotate(0 50 53)" fill="#fdf6e3" stroke="#c9a227" stroke-width="2" stroke-linejoin="round"/><path d="M50,53 C 33.879999999999995,44.9 37.0,31.939999999999998 46.88,28 C 48.7,26 51.3,26 53.12,28 C 63.0,31.939999999999998 66.12,44.9 50,53 Z" transform="rotate(72 50 53)" fill="#fdf6e3" stroke="#c9a227" stroke-width="2" stroke-linejoin="round"/><path d="M50,53 C 33.879999999999995,44.9 37.0,31.939999999999998 46.88,28 C 48.7,26 51.3,26 53.12,28 C 63.0,31.939999999999998 66.12,44.9 50,53 Z" transform="rotate(144 50 53)" fill="#fdf6e3" stroke="#c9a227" stroke-width="2" stroke-linejoin="round"/><path d="M50,53 C 33.879999999999995,44.9 37.0,31.939999999999998 46.88,28 C 48.7,26 51.3,26 53.12,28 C 63.0,31.939999999999998 66.12,44.9 50,53 Z" transform="rotate(216 50 53)" fill="#fdf6e3" stroke="#c9a227" stroke-width="2" stroke-linejoin="round"/><path d="M50,53 C 33.879999999999995,44.9 37.0,31.939999999999998 46.88,28 C 48.7,26 51.3,26 53.12,28 C 63.0,31.939999999999998 66.12,44.9 50,53 Z" transform="rotate(288 50 53)" fill="#fdf6e3" stroke="#c9a227" stroke-width="2" stroke-linejoin="round"/>

  <!-- Inner petal ring -->
  <path d="M50,53 C 38.22,47.9 40.5,39.74 47.72,38 C 49.05,36 50.95,36 52.28,38 C 59.5,39.74 61.78,47.9 50,53 Z" transform="rotate(36 50 53)" fill="#f5e8c0" stroke="#c9a227" stroke-width="1.6" stroke-linejoin="round"/><path d="M50,53 C 38.22,47.9 40.5,39.74 47.72,38 C 49.05,36 50.95,36 52.28,38 C 59.5,39.74 61.78,47.9 50,53 Z" transform="rotate(108 50 53)" fill="#f5e8c0" stroke="#c9a227" stroke-width="1.6" stroke-linejoin="round"/><path d="M50,53 C 38.22,47.9 40.5,39.74 47.72,38 C 49.05,36 50.95,36 52.28,38 C 59.5,39.74 61.78,47.9 50,53 Z" transform="rotate(180 50 53)" fill="#f5e8c0" stroke="#c9a227" stroke-width="1.6" stroke-linejoin="round"/><path d="M50,53 C 38.22,47.9 40.5,39.74 47.72,38 C 49.05,36 50.95,36 52.28,38 C 59.5,39.74 61.78,47.9 50,53 Z" transform="rotate(252 50 53)" fill="#f5e8c0" stroke="#c9a227" stroke-width="1.6" stroke-linejoin="round"/><path d="M50,53 C 38.22,47.9 40.5,39.74 47.72,38 C 49.05,36 50.95,36 52.28,38 C 59.5,39.74 61.78,47.9 50,53 Z" transform="rotate(324 50 53)" fill="#f5e8c0" stroke="#c9a227" stroke-width="1.6" stroke-linejoin="round"/>

  <!-- Rolled centre -->
  <path d="M44,56 C 43,50 48,46 54,48
           C 59,50 58,56 52,57
           C 48,58 47,54 51,52"
        stroke="#c9a227" stroke-width="1.6" stroke-linecap="round" fill="none"/>
</svg>
